# xmcd
#
# Track frame offsets:
#	150
#	11563
#	29092
#	41563
#	58021
#	69935
#	82700
#	93860
#	105059
#	119080
#	130593
#
# Disc length: 1952 seconds
#
# Revision: 0
# Processed by: cddbd v1.5.2PL0 Copyright (c) Steve Scherf et al.
# Submitted via: audiograbber 1.83.01
#
DISCID=7f079e0b
DTITLE=Manfred Mann - Pretty Flamingo
DYEAR=1966
DGENRE=Rock
TTITLE0=Pretty flamingo
TTITLE1=Let's go get stoned
TTITLE2=Tired of trying, bored with living, scared of dying
TTITLE3=I put a spell on you
TTITLE4=It's getting late
TTITLE5=You're standing by
TTITLE6=Machines
TTITLE7=Stay around
TTITLE8=Tennessee waltz
TTITLE9=Driva man
TTITLE10=Do you have to do that
EXTD=
EXTT0=
EXTT1=
EXTT2=
EXTT3=
EXTT4=
EXTT5=
EXTT6=
EXTT7=
EXTT8=
EXTT9=
EXTT10=
PLAYORDER=
